<mxfile host="Electron" agent="Mozilla/5.0 (Windows NT 10.0; Win64; x64) AppleWebKit/537.36 (KHTML, like Gecko) draw.io/24.7.5 Chrome/126.0.6478.183 Electron/31.3.0 Safari/537.36" version="24.7.5">
  <diagram name="Страница — 1" id="0-6oQkvtcUhY1Rr3Mdyo">
    <mxGraphModel dx="1183" dy="1188" grid="0" gridSize="10" guides="1" tooltips="1" connect="1" arrows="1" fold="1" page="1" pageScale="1" pageWidth="3300" pageHeight="2339" math="0" shadow="0">
      <root>
        <mxCell id="0" />
        <mxCell id="1" parent="0" />
        <mxCell id="awgoyA_Zgk-H656Sgtl1-2" value="&lt;span style=&quot;font-size: 14px;&quot;&gt;База данных&lt;/span&gt;" style="swimlane;whiteSpace=wrap;html=1;" parent="1" vertex="1">
          <mxGeometry x="780" y="120" width="250" height="1116" as="geometry" />
        </mxCell>
        <mxCell id="awgoyA_Zgk-H656Sgtl1-8" value="Загрузка списка заявок" style="rounded=1;whiteSpace=wrap;html=1;fontSize=14;" parent="awgoyA_Zgk-H656Sgtl1-2" vertex="1">
          <mxGeometry x="50" y="310" width="150" height="40" as="geometry" />
        </mxCell>
        <mxCell id="awgoyA_Zgk-H656Sgtl1-17" value="" style="endArrow=classic;html=1;rounded=0;exitX=0.5;exitY=1;exitDx=0;exitDy=0;entryX=0.5;entryY=0;entryDx=0;entryDy=0;" parent="awgoyA_Zgk-H656Sgtl1-2" target="awgoyA_Zgk-H656Sgtl1-8" edge="1">
          <mxGeometry width="50" height="50" relative="1" as="geometry">
            <mxPoint x="-160" y="260" as="sourcePoint" />
            <mxPoint x="160" y="310" as="targetPoint" />
            <Array as="points">
              <mxPoint x="-160" y="280" />
              <mxPoint x="125" y="280" />
            </Array>
          </mxGeometry>
        </mxCell>
        <mxCell id="awgoyA_Zgk-H656Sgtl1-32" value="" style="endArrow=classic;html=1;rounded=0;exitX=0.5;exitY=1;exitDx=0;exitDy=0;" parent="awgoyA_Zgk-H656Sgtl1-2" source="awgoyA_Zgk-H656Sgtl1-35" edge="1">
          <mxGeometry width="50" height="50" relative="1" as="geometry">
            <mxPoint x="134.71000000000004" y="1080" as="sourcePoint" />
            <mxPoint x="128" y="1043" as="targetPoint" />
          </mxGeometry>
        </mxCell>
        <mxCell id="awgoyA_Zgk-H656Sgtl1-31" value="" style="ellipse;html=1;shape=endState;fillColor=#000000;strokeColor=#ff0000;" parent="awgoyA_Zgk-H656Sgtl1-2" vertex="1">
          <mxGeometry x="113" y="1042" width="30" height="30" as="geometry" />
        </mxCell>
        <mxCell id="awgoyA_Zgk-H656Sgtl1-35" value="Обновление данных" style="rounded=1;whiteSpace=wrap;html=1;fontSize=14;" parent="awgoyA_Zgk-H656Sgtl1-2" vertex="1">
          <mxGeometry x="43" y="962" width="170" height="50" as="geometry" />
        </mxCell>
        <mxCell id="awgoyA_Zgk-H656Sgtl1-1" value="&lt;span style=&quot;font-size: 14px;&quot;&gt;Специалист&lt;/span&gt;" style="swimlane;whiteSpace=wrap;html=1;" parent="awgoyA_Zgk-H656Sgtl1-2" vertex="1">
          <mxGeometry x="-580" width="280" height="1116" as="geometry" />
        </mxCell>
        <mxCell id="awgoyA_Zgk-H656Sgtl1-3" value="" style="ellipse;html=1;shape=startState;fillColor=#000000;strokeColor=#ff0000;" parent="awgoyA_Zgk-H656Sgtl1-1" vertex="1">
          <mxGeometry x="105" y="30" width="40" height="40" as="geometry" />
        </mxCell>
        <mxCell id="awgoyA_Zgk-H656Sgtl1-5" value="" style="endArrow=classic;html=1;rounded=0;entryX=0.5;entryY=0;entryDx=0;entryDy=0;exitX=0.521;exitY=0.918;exitDx=0;exitDy=0;exitPerimeter=0;" parent="awgoyA_Zgk-H656Sgtl1-1" source="awgoyA_Zgk-H656Sgtl1-3" target="awgoyA_Zgk-H656Sgtl1-6" edge="1">
          <mxGeometry width="50" height="50" relative="1" as="geometry">
            <mxPoint x="121" y="70" as="sourcePoint" />
            <mxPoint x="175" y="110" as="targetPoint" />
          </mxGeometry>
        </mxCell>
        <mxCell id="awgoyA_Zgk-H656Sgtl1-6" value="Авторизация" style="rounded=1;whiteSpace=wrap;html=1;fontSize=14;" parent="awgoyA_Zgk-H656Sgtl1-1" vertex="1">
          <mxGeometry x="60" y="100" width="130" height="40" as="geometry" />
        </mxCell>
        <mxCell id="awgoyA_Zgk-H656Sgtl1-34" value="" style="endArrow=classic;html=1;rounded=0;exitX=0.535;exitY=1.025;exitDx=0;exitDy=0;exitPerimeter=0;entryX=0.5;entryY=0;entryDx=0;entryDy=0;" parent="awgoyA_Zgk-H656Sgtl1-1" edge="1">
          <mxGeometry width="50" height="50" relative="1" as="geometry">
            <mxPoint x="126" y="901" as="sourcePoint" />
            <mxPoint x="711" y="961" as="targetPoint" />
            <Array as="points">
              <mxPoint x="126" y="930" />
              <mxPoint x="711" y="931" />
            </Array>
          </mxGeometry>
        </mxCell>
        <mxCell id="awgoyA_Zgk-H656Sgtl1-28" value="Завершение выезда" style="rounded=1;whiteSpace=wrap;html=1;fontSize=14;" parent="awgoyA_Zgk-H656Sgtl1-1" vertex="1">
          <mxGeometry x="50" y="791" width="150" height="40" as="geometry" />
        </mxCell>
        <mxCell id="awgoyA_Zgk-H656Sgtl1-29" value="" style="endArrow=classic;html=1;rounded=0;exitX=0.5;exitY=1;exitDx=0;exitDy=0;" parent="awgoyA_Zgk-H656Sgtl1-1" edge="1">
          <mxGeometry width="50" height="50" relative="1" as="geometry">
            <mxPoint x="128" y="831" as="sourcePoint" />
            <mxPoint x="128" y="861" as="targetPoint" />
          </mxGeometry>
        </mxCell>
        <mxCell id="awgoyA_Zgk-H656Sgtl1-30" value="Оформление отчетности" style="rounded=1;whiteSpace=wrap;html=1;fontSize=14;" parent="awgoyA_Zgk-H656Sgtl1-1" vertex="1">
          <mxGeometry x="39" y="861" width="180" height="40" as="geometry" />
        </mxCell>
        <mxCell id="awgoyA_Zgk-H656Sgtl1-7" value="" style="endArrow=classic;html=1;rounded=0;exitX=0.535;exitY=1.025;exitDx=0;exitDy=0;exitPerimeter=0;" parent="1" source="awgoyA_Zgk-H656Sgtl1-6" edge="1">
          <mxGeometry width="50" height="50" relative="1" as="geometry">
            <mxPoint x="380" y="360" as="sourcePoint" />
            <mxPoint x="620" y="330" as="targetPoint" />
            <Array as="points">
              <mxPoint x="330" y="290" />
              <mxPoint x="620" y="290" />
            </Array>
          </mxGeometry>
        </mxCell>
        <mxCell id="awgoyA_Zgk-H656Sgtl1-10" value="&lt;span style=&quot;font-size: 14px;&quot;&gt;Приложение&lt;/span&gt;" style="swimlane;whiteSpace=wrap;html=1;" parent="1" vertex="1">
          <mxGeometry x="480" y="120" width="300" height="1116" as="geometry" />
        </mxCell>
        <mxCell id="awgoyA_Zgk-H656Sgtl1-16" value="Запрос к базе данных" style="rounded=1;whiteSpace=wrap;html=1;fontSize=14;" parent="awgoyA_Zgk-H656Sgtl1-10" vertex="1">
          <mxGeometry x="60" y="210" width="170" height="50" as="geometry" />
        </mxCell>
        <mxCell id="awgoyA_Zgk-H656Sgtl1-19" value="Выбор заявки" style="rounded=1;whiteSpace=wrap;html=1;fontSize=14;" parent="awgoyA_Zgk-H656Sgtl1-10" vertex="1">
          <mxGeometry x="-215" y="514" width="130" height="40" as="geometry" />
        </mxCell>
        <mxCell id="awgoyA_Zgk-H656Sgtl1-20" value="" style="endArrow=classic;html=1;rounded=0;exitX=0.5;exitY=1;exitDx=0;exitDy=0;" parent="awgoyA_Zgk-H656Sgtl1-10" edge="1">
          <mxGeometry width="50" height="50" relative="1" as="geometry">
            <mxPoint x="-155" y="554" as="sourcePoint" />
            <mxPoint x="-155" y="584" as="targetPoint" />
          </mxGeometry>
        </mxCell>
        <mxCell id="awgoyA_Zgk-H656Sgtl1-21" value="Нажатие на кнопку &quot;Начать&quot;" style="rounded=1;whiteSpace=wrap;html=1;fontSize=14;" parent="awgoyA_Zgk-H656Sgtl1-10" vertex="1">
          <mxGeometry x="-215" y="584" width="130" height="40" as="geometry" />
        </mxCell>
        <mxCell id="awgoyA_Zgk-H656Sgtl1-22" value="" style="endArrow=classic;html=1;rounded=0;exitX=0.535;exitY=1.025;exitDx=0;exitDy=0;exitPerimeter=0;" parent="awgoyA_Zgk-H656Sgtl1-10" edge="1">
          <mxGeometry width="50" height="50" relative="1" as="geometry">
            <mxPoint x="-155" y="624" as="sourcePoint" />
            <mxPoint x="135" y="693" as="targetPoint" />
            <Array as="points">
              <mxPoint x="-155" y="663" />
              <mxPoint x="135" y="663" />
            </Array>
          </mxGeometry>
        </mxCell>
        <mxCell id="awgoyA_Zgk-H656Sgtl1-15" value="Отображение назначенных вызовов" style="rounded=1;whiteSpace=wrap;html=1;fontSize=14;" parent="awgoyA_Zgk-H656Sgtl1-10" vertex="1">
          <mxGeometry x="70" y="410" width="170" height="50" as="geometry" />
        </mxCell>
        <mxCell id="awgoyA_Zgk-H656Sgtl1-23" value="Вывод детальной информации" style="rounded=1;whiteSpace=wrap;html=1;fontSize=14;" parent="awgoyA_Zgk-H656Sgtl1-10" vertex="1">
          <mxGeometry x="55" y="691" width="170" height="50" as="geometry" />
        </mxCell>
        <mxCell id="awgoyA_Zgk-H656Sgtl1-18" value="" style="endArrow=classic;html=1;rounded=0;exitX=0.5;exitY=1;exitDx=0;exitDy=0;" parent="awgoyA_Zgk-H656Sgtl1-10" source="awgoyA_Zgk-H656Sgtl1-15" edge="1">
          <mxGeometry width="50" height="50" relative="1" as="geometry">
            <mxPoint x="160" y="460" as="sourcePoint" />
            <mxPoint x="-155" y="514" as="targetPoint" />
            <Array as="points">
              <mxPoint x="155" y="484" />
              <mxPoint x="-155" y="484" />
            </Array>
          </mxGeometry>
        </mxCell>
        <mxCell id="awgoyA_Zgk-H656Sgtl1-27" value="" style="endArrow=classic;html=1;rounded=0;exitX=0.5;exitY=1;exitDx=0;exitDy=0;entryX=0.462;entryY=0;entryDx=0;entryDy=0;entryPerimeter=0;" parent="awgoyA_Zgk-H656Sgtl1-10" edge="1">
          <mxGeometry width="50" height="50" relative="1" as="geometry">
            <mxPoint x="138.7" y="741" as="sourcePoint" />
            <mxPoint x="-152.00000000000006" y="791" as="targetPoint" />
            <Array as="points">
              <mxPoint x="138.7" y="765" />
              <mxPoint x="-151.3" y="765" />
            </Array>
          </mxGeometry>
        </mxCell>
        <mxCell id="awgoyA_Zgk-H656Sgtl1-14" value="" style="endArrow=classic;html=1;rounded=0;exitX=0.5;exitY=1;exitDx=0;exitDy=0;" parent="1" source="awgoyA_Zgk-H656Sgtl1-8" edge="1">
          <mxGeometry width="50" height="50" relative="1" as="geometry">
            <mxPoint x="415" y="486" as="sourcePoint" />
            <mxPoint x="630" y="530" as="targetPoint" />
            <Array as="points">
              <mxPoint x="905" y="500" />
              <mxPoint x="630" y="500" />
            </Array>
          </mxGeometry>
        </mxCell>
        <mxCell id="awgoyA_Zgk-H656Sgtl1-36" value="&lt;span style=&quot;font-size: 14px;&quot;&gt;Руководитель&lt;/span&gt;" style="swimlane;whiteSpace=wrap;html=1;" parent="1" vertex="1">
          <mxGeometry x="1260" y="120" width="280" height="530" as="geometry" />
        </mxCell>
        <mxCell id="awgoyA_Zgk-H656Sgtl1-37" value="" style="ellipse;html=1;shape=startState;fillColor=#000000;strokeColor=#ff0000;" parent="awgoyA_Zgk-H656Sgtl1-36" vertex="1">
          <mxGeometry x="120" y="40" width="40" height="40" as="geometry" />
        </mxCell>
        <mxCell id="awgoyA_Zgk-H656Sgtl1-38" value="" style="endArrow=classic;html=1;rounded=0;entryX=0.5;entryY=0;entryDx=0;entryDy=0;exitX=0.521;exitY=0.918;exitDx=0;exitDy=0;exitPerimeter=0;" parent="awgoyA_Zgk-H656Sgtl1-36" source="awgoyA_Zgk-H656Sgtl1-37" edge="1">
          <mxGeometry width="50" height="50" relative="1" as="geometry">
            <mxPoint x="136" y="80" as="sourcePoint" />
            <mxPoint x="140" y="110" as="targetPoint" />
          </mxGeometry>
        </mxCell>
        <mxCell id="awgoyA_Zgk-H656Sgtl1-50" value="Нажатие на кнопку &quot;Добавить сотрудника&quot;" style="rounded=1;whiteSpace=wrap;html=1;fontSize=14;" parent="awgoyA_Zgk-H656Sgtl1-36" vertex="1">
          <mxGeometry x="55" y="110" width="170" height="46" as="geometry" />
        </mxCell>
        <mxCell id="awgoyA_Zgk-H656Sgtl1-64" value="" style="endArrow=classic;html=1;rounded=0;entryX=0.5;entryY=0;entryDx=0;entryDy=0;exitX=0.521;exitY=0.918;exitDx=0;exitDy=0;exitPerimeter=0;" parent="awgoyA_Zgk-H656Sgtl1-36" target="awgoyA_Zgk-H656Sgtl1-65" edge="1">
          <mxGeometry width="50" height="50" relative="1" as="geometry">
            <mxPoint x="140.5" y="156" as="sourcePoint" />
            <mxPoint x="139.5" y="189" as="targetPoint" />
          </mxGeometry>
        </mxCell>
        <mxCell id="awgoyA_Zgk-H656Sgtl1-65" value="Заполнение данных во всплывающем окне" style="rounded=1;whiteSpace=wrap;html=1;fontSize=14;" parent="awgoyA_Zgk-H656Sgtl1-36" vertex="1">
          <mxGeometry x="35" y="190" width="210" height="50" as="geometry" />
        </mxCell>
        <mxCell id="awgoyA_Zgk-H656Sgtl1-41" value="&lt;span style=&quot;font-size: 14px;&quot;&gt;База данных&lt;/span&gt;" style="swimlane;whiteSpace=wrap;html=1;" parent="1" vertex="1">
          <mxGeometry x="1890" y="120" width="270" height="530" as="geometry" />
        </mxCell>
        <mxCell id="awgoyA_Zgk-H656Sgtl1-44" value="" style="ellipse;html=1;shape=endState;fillColor=#000000;strokeColor=#ff0000;" parent="awgoyA_Zgk-H656Sgtl1-41" vertex="1">
          <mxGeometry x="120" y="460" width="30" height="30" as="geometry" />
        </mxCell>
        <mxCell id="awgoyA_Zgk-H656Sgtl1-45" value="" style="endArrow=classic;html=1;rounded=0;exitX=0.5;exitY=1;exitDx=0;exitDy=0;" parent="awgoyA_Zgk-H656Sgtl1-41" edge="1">
          <mxGeometry width="50" height="50" relative="1" as="geometry">
            <mxPoint x="134.71000000000004" y="430" as="sourcePoint" />
            <mxPoint x="134.71000000000004" y="460" as="targetPoint" />
          </mxGeometry>
        </mxCell>
        <mxCell id="awgoyA_Zgk-H656Sgtl1-46" value="Добавление новой строки" style="rounded=1;whiteSpace=wrap;html=1;fontSize=14;" parent="awgoyA_Zgk-H656Sgtl1-41" vertex="1">
          <mxGeometry x="50" y="380" width="170" height="50" as="geometry" />
        </mxCell>
        <mxCell id="awgoyA_Zgk-H656Sgtl1-48" value="&lt;span style=&quot;font-size: 14px;&quot;&gt;Приложение&lt;/span&gt;" style="swimlane;whiteSpace=wrap;html=1;" parent="1" vertex="1">
          <mxGeometry x="1540" y="120" width="350" height="530" as="geometry" />
        </mxCell>
        <mxCell id="awgoyA_Zgk-H656Sgtl1-66" value="" style="endArrow=classic;html=1;rounded=0;exitX=0.535;exitY=1.025;exitDx=0;exitDy=0;exitPerimeter=0;entryX=0.475;entryY=-0.014;entryDx=0;entryDy=0;entryPerimeter=0;" parent="awgoyA_Zgk-H656Sgtl1-48" target="awgoyA_Zgk-H656Sgtl1-67" edge="1">
          <mxGeometry width="50" height="50" relative="1" as="geometry">
            <mxPoint x="-140" y="240" as="sourcePoint" />
            <mxPoint x="189" y="300" as="targetPoint" />
            <Array as="points">
              <mxPoint x="-140" y="279" />
              <mxPoint x="190" y="280" />
            </Array>
          </mxGeometry>
        </mxCell>
        <mxCell id="awgoyA_Zgk-H656Sgtl1-67" value="ФИО и контактные данные указаны корректно?" style="shape=hexagon;perimeter=hexagonPerimeter2;whiteSpace=wrap;html=1;fixedSize=1;fontSize=14;" parent="awgoyA_Zgk-H656Sgtl1-48" vertex="1">
          <mxGeometry x="90" y="310" width="210" height="50" as="geometry" />
        </mxCell>
        <mxCell id="awgoyA_Zgk-H656Sgtl1-70" value="Сообщение &quot;Неверный формат данных!&quot;" style="rounded=1;whiteSpace=wrap;html=1;fontSize=12;" parent="awgoyA_Zgk-H656Sgtl1-48" vertex="1">
          <mxGeometry x="20" y="390" width="140" height="50" as="geometry" />
        </mxCell>
        <mxCell id="awgoyA_Zgk-H656Sgtl1-68" value="Нет" style="endArrow=classic;html=1;rounded=0;exitX=0;exitY=0.5;exitDx=0;exitDy=0;fontSize=16;entryX=0.212;entryY=-0.033;entryDx=0;entryDy=0;entryPerimeter=0;" parent="awgoyA_Zgk-H656Sgtl1-48" source="awgoyA_Zgk-H656Sgtl1-67" target="awgoyA_Zgk-H656Sgtl1-70" edge="1">
          <mxGeometry width="50" height="50" relative="1" as="geometry">
            <mxPoint x="40" y="310" as="sourcePoint" />
            <mxPoint x="50" y="380" as="targetPoint" />
            <Array as="points">
              <mxPoint x="50" y="335" />
            </Array>
          </mxGeometry>
        </mxCell>
        <mxCell id="awgoyA_Zgk-H656Sgtl1-71" value="" style="ellipse;html=1;shape=endState;fillColor=#000000;strokeColor=#ff0000;" parent="awgoyA_Zgk-H656Sgtl1-48" vertex="1">
          <mxGeometry x="70" y="470" width="30" height="30" as="geometry" />
        </mxCell>
        <mxCell id="awgoyA_Zgk-H656Sgtl1-72" value="" style="endArrow=classic;html=1;rounded=0;exitX=0.5;exitY=1;exitDx=0;exitDy=0;" parent="awgoyA_Zgk-H656Sgtl1-48" edge="1">
          <mxGeometry width="50" height="50" relative="1" as="geometry">
            <mxPoint x="84.71000000000004" y="440" as="sourcePoint" />
            <mxPoint x="84.71000000000004" y="470" as="targetPoint" />
          </mxGeometry>
        </mxCell>
        <mxCell id="awgoyA_Zgk-H656Sgtl1-69" value="Да" style="endArrow=classic;html=1;rounded=0;exitX=1;exitY=0.5;exitDx=0;exitDy=0;fontSize=16;entryX=0.5;entryY=0;entryDx=0;entryDy=0;" parent="1" source="awgoyA_Zgk-H656Sgtl1-67" target="awgoyA_Zgk-H656Sgtl1-46" edge="1">
          <mxGeometry width="50" height="50" relative="1" as="geometry">
            <mxPoint x="2050" y="470" as="sourcePoint" />
            <mxPoint x="2030" y="520" as="targetPoint" />
            <Array as="points">
              <mxPoint x="2025" y="455" />
            </Array>
          </mxGeometry>
        </mxCell>
        <mxCell id="awgoyA_Zgk-H656Sgtl1-73" value="&lt;span style=&quot;font-size: 14px;&quot;&gt;Руководитель&lt;/span&gt;" style="swimlane;whiteSpace=wrap;html=1;" parent="1" vertex="1">
          <mxGeometry x="1260" y="750" width="280" height="730" as="geometry" />
        </mxCell>
        <mxCell id="awgoyA_Zgk-H656Sgtl1-74" value="" style="ellipse;html=1;shape=startState;fillColor=#000000;strokeColor=#ff0000;" parent="awgoyA_Zgk-H656Sgtl1-73" vertex="1">
          <mxGeometry x="120" y="40" width="40" height="40" as="geometry" />
        </mxCell>
        <mxCell id="awgoyA_Zgk-H656Sgtl1-75" value="" style="endArrow=classic;html=1;rounded=0;entryX=0.5;entryY=0;entryDx=0;entryDy=0;exitX=0.521;exitY=0.918;exitDx=0;exitDy=0;exitPerimeter=0;" parent="awgoyA_Zgk-H656Sgtl1-73" source="awgoyA_Zgk-H656Sgtl1-74" edge="1">
          <mxGeometry width="50" height="50" relative="1" as="geometry">
            <mxPoint x="136" y="80" as="sourcePoint" />
            <mxPoint x="140" y="110" as="targetPoint" />
          </mxGeometry>
        </mxCell>
        <mxCell id="awgoyA_Zgk-H656Sgtl1-76" value="Выбор сотрудника из списка" style="rounded=1;whiteSpace=wrap;html=1;fontSize=14;" parent="awgoyA_Zgk-H656Sgtl1-73" vertex="1">
          <mxGeometry x="55" y="110" width="170" height="46" as="geometry" />
        </mxCell>
        <mxCell id="awgoyA_Zgk-H656Sgtl1-77" value="" style="endArrow=classic;html=1;rounded=0;entryX=0.5;entryY=0;entryDx=0;entryDy=0;exitX=0.521;exitY=0.918;exitDx=0;exitDy=0;exitPerimeter=0;" parent="awgoyA_Zgk-H656Sgtl1-73" target="awgoyA_Zgk-H656Sgtl1-78" edge="1">
          <mxGeometry width="50" height="50" relative="1" as="geometry">
            <mxPoint x="140.5" y="156" as="sourcePoint" />
            <mxPoint x="139.5" y="189" as="targetPoint" />
          </mxGeometry>
        </mxCell>
        <mxCell id="awgoyA_Zgk-H656Sgtl1-78" value="Выбор запланированного выезда" style="rounded=1;whiteSpace=wrap;html=1;fontSize=14;" parent="awgoyA_Zgk-H656Sgtl1-73" vertex="1">
          <mxGeometry x="50" y="190" width="180" height="50" as="geometry" />
        </mxCell>
        <mxCell id="awgoyA_Zgk-H656Sgtl1-91" value="" style="endArrow=classic;html=1;rounded=0;entryX=0.5;entryY=0;entryDx=0;entryDy=0;exitX=0.521;exitY=0.918;exitDx=0;exitDy=0;exitPerimeter=0;" parent="awgoyA_Zgk-H656Sgtl1-73" target="awgoyA_Zgk-H656Sgtl1-92" edge="1">
          <mxGeometry width="50" height="50" relative="1" as="geometry">
            <mxPoint x="140.5" y="240" as="sourcePoint" />
            <mxPoint x="139.5" y="273" as="targetPoint" />
          </mxGeometry>
        </mxCell>
        <mxCell id="awgoyA_Zgk-H656Sgtl1-92" value="Нажатие на кнопку &quot;Переназначить&quot;" style="rounded=1;whiteSpace=wrap;html=1;fontSize=14;" parent="awgoyA_Zgk-H656Sgtl1-73" vertex="1">
          <mxGeometry x="50" y="274" width="180" height="50" as="geometry" />
        </mxCell>
        <mxCell id="awgoyA_Zgk-H656Sgtl1-94" value="" style="endArrow=classic;html=1;rounded=0;exitX=0.535;exitY=1.025;exitDx=0;exitDy=0;exitPerimeter=0;entryX=0.5;entryY=0;entryDx=0;entryDy=0;" parent="awgoyA_Zgk-H656Sgtl1-73" target="awgoyA_Zgk-H656Sgtl1-93" edge="1">
          <mxGeometry width="50" height="50" relative="1" as="geometry">
            <mxPoint x="140" y="324" as="sourcePoint" />
            <mxPoint x="410" y="380" as="targetPoint" />
            <Array as="points">
              <mxPoint x="140" y="363" />
              <mxPoint x="425" y="363" />
            </Array>
          </mxGeometry>
        </mxCell>
        <mxCell id="awgoyA_Zgk-H656Sgtl1-96" value="Выбор мастера" style="rounded=1;whiteSpace=wrap;html=1;fontSize=14;" parent="awgoyA_Zgk-H656Sgtl1-73" vertex="1">
          <mxGeometry x="70" y="491" width="140" height="39" as="geometry" />
        </mxCell>
        <mxCell id="awgoyA_Zgk-H656Sgtl1-79" value="&lt;span style=&quot;font-size: 14px;&quot;&gt;База данных&lt;/span&gt;" style="swimlane;whiteSpace=wrap;html=1;" parent="1" vertex="1">
          <mxGeometry x="1830" y="750" width="230" height="730" as="geometry" />
        </mxCell>
        <mxCell id="awgoyA_Zgk-H656Sgtl1-100" value="Обновление данных" style="rounded=1;whiteSpace=wrap;html=1;fontSize=14;" parent="awgoyA_Zgk-H656Sgtl1-79" vertex="1">
          <mxGeometry x="37.5" y="590" width="170" height="50" as="geometry" />
        </mxCell>
        <mxCell id="awgoyA_Zgk-H656Sgtl1-101" value="" style="endArrow=classic;html=1;rounded=0;exitX=0.5;exitY=1;exitDx=0;exitDy=0;" parent="awgoyA_Zgk-H656Sgtl1-79" edge="1">
          <mxGeometry width="50" height="50" relative="1" as="geometry">
            <mxPoint x="122.16" y="640" as="sourcePoint" />
            <mxPoint x="122.16" y="670" as="targetPoint" />
          </mxGeometry>
        </mxCell>
        <mxCell id="awgoyA_Zgk-H656Sgtl1-98" value="" style="ellipse;html=1;shape=endState;fillColor=#000000;strokeColor=#ff0000;" parent="awgoyA_Zgk-H656Sgtl1-79" vertex="1">
          <mxGeometry x="107.5" y="670" width="30" height="30" as="geometry" />
        </mxCell>
        <mxCell id="awgoyA_Zgk-H656Sgtl1-83" value="&lt;span style=&quot;font-size: 14px;&quot;&gt;Приложение&lt;/span&gt;" style="swimlane;whiteSpace=wrap;html=1;" parent="1" vertex="1">
          <mxGeometry x="1540" y="750" width="290" height="730" as="geometry" />
        </mxCell>
        <mxCell id="awgoyA_Zgk-H656Sgtl1-93" value="Отображение списка свободных инсталляторов" style="rounded=1;whiteSpace=wrap;html=1;fontSize=14;" parent="awgoyA_Zgk-H656Sgtl1-83" vertex="1">
          <mxGeometry x="40" y="390" width="210" height="50" as="geometry" />
        </mxCell>
        <mxCell id="awgoyA_Zgk-H656Sgtl1-95" value="" style="endArrow=classic;html=1;rounded=0;exitX=0.5;exitY=1;exitDx=0;exitDy=0;entryX=0.5;entryY=0;entryDx=0;entryDy=0;" parent="1" source="awgoyA_Zgk-H656Sgtl1-93" target="awgoyA_Zgk-H656Sgtl1-96" edge="1">
          <mxGeometry width="50" height="50" relative="1" as="geometry">
            <mxPoint x="1730" y="1190" as="sourcePoint" />
            <mxPoint x="1400" y="1230" as="targetPoint" />
            <Array as="points">
              <mxPoint x="1685" y="1214" />
              <mxPoint x="1400" y="1214" />
            </Array>
          </mxGeometry>
        </mxCell>
        <mxCell id="awgoyA_Zgk-H656Sgtl1-97" value="" style="endArrow=classic;html=1;rounded=0;exitX=0.5;exitY=1;exitDx=0;exitDy=0;entryX=0.5;entryY=0;entryDx=0;entryDy=0;" parent="1" source="awgoyA_Zgk-H656Sgtl1-96" target="awgoyA_Zgk-H656Sgtl1-100" edge="1">
          <mxGeometry width="50" height="50" relative="1" as="geometry">
            <mxPoint x="1402.5" y="1280" as="sourcePoint" />
            <mxPoint x="2012.5" y="1340" as="targetPoint" />
            <Array as="points">
              <mxPoint x="1400" y="1310" />
              <mxPoint x="1953" y="1310" />
            </Array>
          </mxGeometry>
        </mxCell>
      </root>
    </mxGraphModel>
  </diagram>
</mxfile>
